<svg xmlns="http://www.w3.org/2000/svg" viewBox="0 0 200 200" width="200" height="200">
  <rect width="200" height="200" rx="24" fill="#1e293b"/>
  <g transform="translate(40, 30)">
    <!-- Document/scroll shape -->
    <path d="M20 10 L100 10 L100 130 Q100 140 90 140 L30 140 Q20 140 20 130 Z" fill="#f8fafc" opacity="0.9"/>
    <path d="M100 10 L120 30 L100 30 Z" fill="#94a3b8"/>
    <!-- Text lines -->
    <rect x="35" y="40" width="50" height="4" rx="2" fill="#64748b"/>
    <rect x="35" y="52" width="40" height="4" rx="2" fill="#64748b"/>
    <rect x="35" y="64" width="55" height="4" rx="2" fill="#64748b"/>
    <rect x="35" y="76" width="35" height="4" rx="2" fill="#64748b"/>
    <rect x="35" y="88" width="45" height="4" rx="2" fill="#64748b"/>
    <rect x="35" y="100" width="50" height="4" rx="2" fill="#64748b"/>
    <!-- Graph nodes overlay -->
    <circle cx="85" cy="115" r="6" fill="#3b82f6"/>
    <circle cx="105" cy="95" r="5" fill="#3b82f6"/>
    <circle cx="110" cy="120" r="4" fill="#3b82f6"/>
    <line x1="85" y1="115" x2="105" y2="95" stroke="#3b82f6" stroke-width="1.5" opacity="0.6"/>
    <line x1="85" y1="115" x2="110" y2="120" stroke="#3b82f6" stroke-width="1.5" opacity="0.6"/>
    <line x1="105" y1="95" x2="110" y2="120" stroke="#3b82f6" stroke-width="1.5" opacity="0.6"/>
  </g>
  <!-- Name -->
  <text x="100" y="185" text-anchor="middle" font-family="system-ui, sans-serif" font-size="18" font-weight="600" fill="#f8fafc">VELLUM</text>
</svg>
